ffmpeg started on 2025-05-13 at 10:11:11
Report written to "D:\Convert\FFMetrics\reports\ssim_report-6.txt"
Log level: 32
Command line:
ffmpeg -hide_banner -nostdin -i "G:\\\xc0\xed\xe8\xec\xe5\\\xce\xed\xe3\xee\xe8\xed\xe3\xe8\\!_35_\xcb\xe5\xf2\xee_2024\\DreamCast-1\\\xd3 \xec\xee\xe5\xe9 \xe6\xe5\xed\xfb \xed\xe5\xf2 \xfd\xec\xee\xf6\xe8\xe9\\[DC] Boku no Tsuma wa Kanjou ga Nai - 04_Telegram_HEVC.mkv" -i "G:\\\xc0\xed\xe8\xec\xe5\\\xce\xed\xe3\xee\xe8\xed\xe3\xe8\\!_35_\xcb\xe5\xf2\xee_2024\\DreamCast-1\\\xd3 \xec\xee\xe5\xe9 \xe6\xe5\xed\xfb \xed\xe5\xf2 \xfd\xec\xee\xf6\xe8\xe9\\[DC] Boku no Tsuma wa Kanjou ga Nai - 04_Telegram.mp4" -lavfi "[0:v]settb=AVTB,setpts=PTS-STARTPTS,format=pix_fmts=yuv420p10,fps=24000/1001,scale=1920:1080:flags=bicubic[main];[1:v]settb=AVTB,setpts=PTS-STARTPTS,format=pix_fmts=yuv420p,fps=24000/1001,scale=1920:1080:flags=bicubic[ref];[main][ref]ssim=eof_action=endall:stats_file='D\\:/Convert/FFMetrics/logs/ssim_logfile-6.txt'" -f null -
Input #0, matroska,webm, from 'G:\Аниме\Онгоинги\!_35_Лето_2024\DreamCast-1\У моей жены нет эмоций\[DC] Boku no Tsuma wa Kanjou ga Nai - 04_Telegram_HEVC.mkv':
  Metadata:
    COMPATIBLE_BRANDS: isomiso2avc1mp41
    MAJOR_BRAND     : isom
    MINOR_VERSION   : 512
    ENCODER         : Lavf61.7.100
  Duration: 00:23:46.69, start: -0.021000, bitrate: 1206 kb/s
  Stream #0:0: Video: hevc (Main 10), yuv420p10le(tv, bt709, progressive), 1920x1080 [SAR 1:1 DAR 16:9], 23.98 fps, 23.98 tbr, 1k tbn (default)
      Metadata:
        HANDLER_NAME    : VideoHandler
        VENDOR_ID       : [0][0][0][0]
        ENCODER         : Lavc61.19.100 libx265
        BPS             : 1009121
        DURATION        : 00:23:46.591708333
        NUMBER_OF_FRAMES: 34204
        NUMBER_OF_BYTES : 179950454
        _STATISTICS_WRITING_APP: mkvpropedit v66.0.0 ('Josie') 64-bit
        _STATISTICS_WRITING_DATE_UTC: 2025-05-11 12:25:14
        _STATISTICS_TAGS: BPS DURATION NUMBER_OF_FRAMES NUMBER_OF_BYTES
  Stream #0:1: Audio: aac (LC), 48000 Hz, stereo, fltp (default)
      Metadata:
        HANDLER_NAME    : SoundHandler
        VENDOR_ID       : [0][0][0][0]
        ENCODER         : Lavc61.19.100 aac
        BPS             : 193536
        DURATION        : 00:23:46.688000000
        NUMBER_OF_FRAMES: 66877
        NUMBER_OF_BYTES : 34514559
        _STATISTICS_WRITING_APP: mkvpropedit v66.0.0 ('Josie') 64-bit
        _STATISTICS_WRITING_DATE_UTC: 2025-05-11 12:25:14
        _STATISTICS_TAGS: BPS DURATION NUMBER_OF_FRAMES NUMBER_OF_BYTES
Input #1, mov,mp4,m4a,3gp,3g2,mj2, from 'G:\Аниме\Онгоинги\!_35_Лето_2024\DreamCast-1\У моей жены нет эмоций\[DC] Boku no Tsuma wa Kanjou ga Nai - 04_Telegram.mp4':
  Metadata:
    major_brand     : isom
    minor_version   : 512
    compatible_brands: isomiso2avc1mp41
    encoder         : Lavf61.1.100
  Duration: 00:23:46.66, start: 0.000000, bitrate: 3886 kb/s
  Stream #1:0[0x1](und): Video: h264 (High) (avc1 / 0x31637661), yuv420p(tv, bt709, progressive), 1920x1080 [SAR 1:1 DAR 16:9], 3739 kb/s, 23.98 fps, 23.98 tbr, 24k tbn (default)
      Metadata:
        handler_name    : VideoHandler
        vendor_id       : [0][0][0][0]
        encoder         : Lavc61.3.100 h264_qsv
  Stream #1:1[0x2](und): Audio: aac (HE-AACv2) (mp4a / 0x6134706D), 48000 Hz, stereo, fltp, 144 kb/s (default)
      Metadata:
        handler_name    : SoundHandler
        vendor_id       : [0][0][0][0]
Stream mapping:
  Stream #0:0 (hevc) -> settb:default
  Stream #1:0 (h264) -> settb:default
  ssim:default -> Stream #0:0 (wrapped_avframe)
  Stream #0:1 -> #0:1 (aac (native) -> pcm_s16le (native))
Output #0, null, to 'pipe:':
  Metadata:
    COMPATIBLE_BRANDS: isomiso2avc1mp41
    MAJOR_BRAND     : isom
    MINOR_VERSION   : 512
    encoder         : Lavf61.7.100
  Stream #0:0: Video: wrapped_avframe, yuv420p10le(tv, bt709, progressive), 1920x1080 [SAR 1:1 DAR 16:9], q=2-31, 200 kb/s, 23.98 fps, 23.98 tbn
      Metadata:
        encoder         : Lavc61.19.100 wrapped_avframe
  Stream #0:1: Audio: pcm_s16le, 48000 Hz, stereo, s16, 1536 kb/s (default)
      Metadata:
        HANDLER_NAME    : SoundHandler
        VENDOR_ID       : [0][0][0][0]
        _STATISTICS_TAGS: BPS DURATION NUMBER_OF_FRAMES NUMBER_OF_BYTES
        BPS             : 193536
        DURATION        : 00:23:46.688000000
        NUMBER_OF_FRAMES: 66877
        NUMBER_OF_BYTES : 34514559
        _STATISTICS_WRITING_APP: mkvpropedit v66.0.0 ('Josie') 64-bit
        _STATISTICS_WRITING_DATE_UTC: 2025-05-11 12:25:14
        encoder         : Lavc61.19.100 pcm_s16le
frame=  171 fps=0.0 q=-0.0 size=N/A time=00:00:07.13 bitrate=N/A speed=14.1x    frame=  405 fps=393 q=-0.0 size=N/A time=00:00:16.89 bitrate=N/A speed=16.4x    frame=  656 fps=423 q=-0.0 size=N/A time=00:00:27.36 bitrate=N/A speed=17.7x    frame=  905 fps=440 q=-0.0 size=N/A time=00:00:37.74 bitrate=N/A speed=18.3x    frame= 1176 fps=456 q=-0.0 size=N/A time=00:00:49.04 bitrate=N/A speed=  19x    frame= 1425 fps=462 q=-0.0 size=N/A time=00:00:59.43 bitrate=N/A speed=19.3x    frame= 1698 fps=470 q=-0.0 size=N/A time=00:01:10.82 bitrate=N/A speed=19.6x    frame= 1968 fps=476 q=-0.0 size=N/A time=00:01:22.08 bitrate=N/A speed=19.9x    frame= 2216 fps=478 q=-0.0 size=N/A time=00:01:32.42 bitrate=N/A speed=19.9x    frame= 2423 fps=469 q=-0.0 size=N/A time=00:01:41.05 bitrate=N/A speed=19.6x    frame= 2613 fps=461 q=-0.0 size=N/A time=00:01:48.98 bitrate=N/A speed=19.2x    frame= 2840 fps=459 q=-0.0 size=N/A time=00:01:58.45 bitrate=N/A speed=19.1x    frame= 3038 fps=453 q=-0.0 size=N/A time=00:02:06.70 bitrate=N/A speed=18.9x    frame= 3188 fps=442 q=-0.0 size=N/A time=00:02:12.96 bitrate=N/A speed=18.4x    frame= 3376 fps=437 q=-0.0 size=N/A time=00:02:20.80 bitrate=N/A speed=18.2x    frame= 3555 fps=431 q=-0.0 size=N/A time=00:02:28.27 bitrate=N/A speed=  18x    frame= 3778 fps=431 q=-0.0 size=N/A time=00:02:37.57 bitrate=N/A speed=  18x    frame= 3985 fps=429 q=-0.0 size=N/A time=00:02:46.20 bitrate=N/A speed=17.9x    frame= 4200 fps=428 q=-0.0 size=N/A time=00:02:55.17 bitrate=N/A speed=17.9x    frame= 4400 fps=427 q=-0.0 size=N/A time=00:03:03.51 bitrate=N/A speed=17.8x    frame= 4594 fps=424 q=-0.0 size=N/A time=00:03:11.60 bitrate=N/A speed=17.7x    frame= 4828 fps=426 q=-0.0 size=N/A time=00:03:21.36 bitrate=N/A speed=17.8x    frame= 5029 fps=424 q=-0.0 size=N/A time=00:03:29.75 bitrate=N/A speed=17.7x    frame= 5251 fps=424 q=-0.0 size=N/A time=00:03:39.01 bitrate=N/A speed=17.7x    frame= 5449 fps=423 q=-0.0 size=N/A time=00:03:47.26 bitrate=N/A speed=17.6x    frame= 5675 fps=423 q=-0.0 size=N/A time=00:03:56.69 bitrate=N/A speed=17.7x    frame= 5909 fps=424 q=-0.0 size=N/A time=00:04:06.45 bitrate=N/A speed=17.7x    frame= 6102 fps=423 q=-0.0 size=N/A time=00:04:14.50 bitrate=N/A speed=17.6x    frame= 6318 fps=423 q=-0.0 size=N/A time=00:04:23.51 bitrate=N/A speed=17.6x    frame= 6556 fps=424 q=-0.0 size=N/A time=00:04:33.43 bitrate=N/A speed=17.7x    frame= 6808 fps=426 q=-0.0 size=N/A time=00:04:43.95 bitrate=N/A speed=17.8x    frame= 7057 fps=428 q=-0.0 size=N/A time=00:04:54.33 bitrate=N/A speed=17.8x    frame= 7299 fps=429 q=-0.0 size=N/A time=00:05:04.42 bitrate=N/A speed=17.9x    frame= 7545 fps=430 q=-0.0 size=N/A time=00:05:14.68 bitrate=N/A speed=17.9x    frame= 7786 fps=431 q=-0.0 size=N/A time=00:05:24.74 bitrate=N/A speed=  18x    frame= 8041 fps=433 q=-0.0 size=N/A time=00:05:35.37 bitrate=N/A speed=18.1x    frame= 8274 fps=434 q=-0.0 size=N/A time=00:05:45.09 bitrate=N/A speed=18.1x    frame= 8510 fps=434 q=-0.0 size=N/A time=00:05:54.93 bitrate=N/A speed=18.1x    frame= 8775 fps=437 q=-0.0 size=N/A time=00:06:05.99 bitrate=N/A speed=18.2x    frame= 9037 fps=438 q=-0.0 size=N/A time=00:06:16.91 bitrate=N/A speed=18.3x    frame= 9279 fps=439 q=-0.0 size=N/A time=00:06:27.01 bitrate=N/A speed=18.3x    frame= 9533 fps=440 q=-0.0 size=N/A time=00:06:37.60 bitrate=N/A speed=18.4x    frame= 9735 fps=439 q=-0.0 size=N/A time=00:06:46.03 bitrate=N/A speed=18.3x    frame= 9945 fps=438 q=-0.0 size=N/A time=00:06:54.78 bitrate=N/A speed=18.3x    frame=10198 fps=440 q=-0.0 size=N/A time=00:07:05.34 bitrate=N/A speed=18.3x    frame=10460 fps=441 q=-0.0 size=N/A time=00:07:16.26 bitrate=N/A speed=18.4x    frame=10689 fps=441 q=-0.0 size=N/A time=00:07:25.82 bitrate=N/A speed=18.4x    frame=10927 fps=441 q=-0.0 size=N/A time=00:07:35.74 bitrate=N/A speed=18.4x    frame=11161 fps=442 q=-0.0 size=N/A time=00:07:45.50 bitrate=N/A speed=18.4x    frame=11388 fps=442 q=-0.0 size=N/A time=00:07:54.97 bitrate=N/A speed=18.4x    frame=11620 fps=442 q=-0.0 size=N/A time=00:08:04.65 bitrate=N/A speed=18.4x    frame=11840 fps=441 q=-0.0 size=N/A time=00:08:13.82 bitrate=N/A speed=18.4x    frame=12067 fps=441 q=-0.0 size=N/A time=00:08:23.29 bitrate=N/A speed=18.4x    frame=12313 fps=442 q=-0.0 size=N/A time=00:08:33.55 bitrate=N/A speed=18.4x    frame=12546 fps=442 q=-0.0 size=N/A time=00:08:43.27 bitrate=N/A speed=18.4x    frame=12756 fps=441 q=-0.0 size=N/A time=00:08:52.03 bitrate=N/A speed=18.4x    frame=12990 fps=442 q=-0.0 size=N/A time=00:09:01.79 bitrate=N/A speed=18.4x    frame=13162 fps=440 q=-0.0 size=N/A time=00:09:08.96 bitrate=N/A speed=18.4x    frame=13390 fps=440 q=-0.0 size=N/A time=00:09:18.47 bitrate=N/A speed=18.3x    frame=13594 fps=439 q=-0.0 size=N/A time=00:09:26.98 bitrate=N/A speed=18.3x    frame=13801 fps=439 q=-0.0 size=N/A time=00:09:35.61 bitrate=N/A speed=18.3x    frame=14024 fps=438 q=-0.0 size=N/A time=00:09:44.91 bitrate=N/A speed=18.3x    frame=14262 fps=439 q=-0.0 size=N/A time=00:09:54.84 bitrate=N/A speed=18.3x    frame=14522 fps=440 q=-0.0 size=N/A time=00:10:05.68 bitrate=N/A speed=18.3x    frame=14784 fps=441 q=-0.0 size=N/A time=00:10:16.61 bitrate=N/A speed=18.4x    frame=15049 fps=442 q=-0.0 size=N/A time=00:10:27.66 bitrate=N/A speed=18.4x    frame=15295 fps=443 q=-0.0 size=N/A time=00:10:37.92 bitrate=N/A speed=18.5x    frame=15555 fps=443 q=-0.0 size=N/A time=00:10:48.77 bitrate=N/A speed=18.5x    frame=15777 fps=443 q=-0.0 size=N/A time=00:10:58.03 bitrate=N/A speed=18.5x    frame=15996 fps=443 q=-0.0 size=N/A time=00:11:07.16 bitrate=N/A speed=18.5x    frame=16234 fps=443 q=-0.0 size=N/A time=00:11:17.09 bitrate=N/A speed=18.5x    frame=16482 fps=444 q=-0.0 size=N/A time=00:11:27.43 bitrate=N/A speed=18.5x    frame=16729 fps=444 q=-0.0 size=N/A time=00:11:37.73 bitrate=N/A speed=18.5x    frame=16977 fps=445 q=-0.0 size=N/A time=00:11:48.08 bitrate=N/A speed=18.6x    frame=17185 fps=444 q=-0.0 size=N/A time=00:11:56.75 bitrate=N/A speed=18.5x    frame=17405 fps=444 q=-0.0 size=N/A time=00:12:05.93 bitrate=N/A speed=18.5x    frame=17623 fps=444 q=-0.0 size=N/A time=00:12:15.02 bitrate=N/A speed=18.5x    frame=17827 fps=443 q=-0.0 size=N/A time=00:12:23.53 bitrate=N/A speed=18.5x    frame=18100 fps=444 q=-0.0 size=N/A time=00:12:34.92 bitrate=N/A speed=18.5x    frame=18334 fps=444 q=-0.0 size=N/A time=00:12:44.68 bitrate=N/A speed=18.5x    frame=18564 fps=444 q=-0.0 size=N/A time=00:12:54.27 bitrate=N/A speed=18.5x    frame=18813 fps=445 q=-0.0 size=N/A time=00:13:04.65 bitrate=N/A speed=18.5x    frame=19015 fps=444 q=-0.0 size=N/A time=00:13:13.08 bitrate=N/A speed=18.5x    frame=19260 fps=444 q=-0.0 size=N/A time=00:13:23.30 bitrate=N/A speed=18.5x    frame=19488 fps=444 q=-0.0 size=N/A time=00:13:32.85 bitrate=N/A speed=18.5x    frame=19748 fps=445 q=-0.0 size=N/A time=00:13:43.65 bitrate=N/A speed=18.6x    frame=19958 fps=445 q=-0.0 size=N/A time=00:13:52.41 bitrate=N/A speed=18.5x    frame=20179 fps=444 q=-0.0 size=N/A time=00:14:01.63 bitrate=N/A speed=18.5x    frame=20411 fps=444 q=-0.0 size=N/A time=00:14:11.30 bitrate=N/A speed=18.5x    frame=20617 fps=444 q=-0.0 size=N/A time=00:14:19.90 bitrate=N/A speed=18.5x    frame=20845 fps=444 q=-0.0 size=N/A time=00:14:29.41 bitrate=N/A speed=18.5x    frame=21073 fps=444 q=-0.0 size=N/A time=00:14:38.91 bitrate=N/A speed=18.5x    frame=21333 fps=445 q=-0.0 size=N/A time=00:14:49.76 bitrate=N/A speed=18.5x    frame=21568 fps=445 q=-0.0 size=N/A time=00:14:59.56 bitrate=N/A speed=18.5x    frame=21788 fps=444 q=-0.0 size=N/A time=00:15:08.74 bitrate=N/A speed=18.5x    frame=22002 fps=444 q=-0.0 size=N/A time=00:15:17.70 bitrate=N/A speed=18.5x    frame=22214 fps=444 q=-0.0 size=N/A time=00:15:26.50 bitrate=N/A speed=18.5x    frame=22441 fps=444 q=-0.0 size=N/A time=00:15:35.97 bitrate=N/A speed=18.5x    frame=22686 fps=444 q=-0.0 size=N/A time=00:15:46.19 bitrate=N/A speed=18.5x    frame=22903 fps=444 q=-0.0 size=N/A time=00:15:55.24 bitrate=N/A speed=18.5x    frame=23156 fps=444 q=-0.0 size=N/A time=00:16:05.79 bitrate=N/A speed=18.5x    frame=23425 fps=445 q=-0.0 size=N/A time=00:16:17.01 bitrate=N/A speed=18.6x    frame=23689 fps=446 q=-0.0 size=N/A time=00:16:28.02 bitrate=N/A speed=18.6x    frame=23924 fps=446 q=-0.0 size=N/A time=00:16:37.83 bitrate=N/A speed=18.6x    frame=24180 fps=446 q=-0.0 size=N/A time=00:16:48.50 bitrate=N/A speed=18.6x    frame=24441 fps=447 q=-0.0 size=N/A time=00:16:59.39 bitrate=N/A speed=18.6x    frame=24707 fps=448 q=-0.0 size=N/A time=00:17:10.48 bitrate=N/A speed=18.7x    frame=24965 fps=448 q=-0.0 size=N/A time=00:17:21.24 bitrate=N/A speed=18.7x    frame=25211 fps=448 q=-0.0 size=N/A time=00:17:31.50 bitrate=N/A speed=18.7x    frame=25474 fps=449 q=-0.0 size=N/A time=00:17:42.47 bitrate=N/A speed=18.7x    frame=25734 fps=449 q=-0.0 size=N/A time=00:17:53.32 bitrate=N/A speed=18.7x    frame=25985 fps=450 q=-0.0 size=N/A time=00:18:03.79 bitrate=N/A speed=18.8x    frame=26184 fps=449 q=-0.0 size=N/A time=00:18:12.09 bitrate=N/A speed=18.7x    frame=26370 fps=448 q=-0.0 size=N/A time=00:18:19.84 bitrate=N/A speed=18.7x    frame=26600 fps=448 q=-0.0 size=N/A time=00:18:29.44 bitrate=N/A speed=18.7x    frame=26825 fps=448 q=-0.0 size=N/A time=00:18:38.82 bitrate=N/A speed=18.7x    frame=27105 fps=449 q=-0.0 size=N/A time=00:18:50.50 bitrate=N/A speed=18.7x    frame=27331 fps=449 q=-0.0 size=N/A time=00:18:59.93 bitrate=N/A speed=18.7x    frame=27572 fps=449 q=-0.0 size=N/A time=00:19:09.98 bitrate=N/A speed=18.7x    frame=27850 fps=450 q=-0.0 size=N/A time=00:19:21.57 bitrate=N/A speed=18.8x    frame=28109 fps=450 q=-0.0 size=N/A time=00:19:32.37 bitrate=N/A speed=18.8x    frame=28351 fps=450 q=-0.0 size=N/A time=00:19:42.47 bitrate=N/A speed=18.8x    frame=28594 fps=451 q=-0.0 size=N/A time=00:19:52.60 bitrate=N/A speed=18.8x    frame=28880 fps=451 q=-0.0 size=N/A time=00:20:04.53 bitrate=N/A speed=18.8x    frame=29148 fps=452 q=-0.0 size=N/A time=00:20:15.71 bitrate=N/A speed=18.9x    frame=29326 fps=451 q=-0.0 size=N/A time=00:20:23.13 bitrate=N/A speed=18.8x    frame=29563 fps=451 q=-0.0 size=N/A time=00:20:33.02 bitrate=N/A speed=18.8x    frame=29828 fps=452 q=-0.0 size=N/A time=00:20:44.07 bitrate=N/A speed=18.8x    frame=30031 fps=451 q=-0.0 size=N/A time=00:20:52.54 bitrate=N/A speed=18.8x    frame=30249 fps=451 q=-0.0 size=N/A time=00:21:01.63 bitrate=N/A speed=18.8x    frame=30510 fps=451 q=-0.0 size=N/A time=00:21:12.52 bitrate=N/A speed=18.8x    frame=30755 fps=452 q=-0.0 size=N/A time=00:21:22.73 bitrate=N/A speed=18.8x    frame=31015 fps=452 q=-0.0 size=N/A time=00:21:33.58 bitrate=N/A speed=18.9x    frame=31268 fps=452 q=-0.0 size=N/A time=00:21:44.13 bitrate=N/A speed=18.9x    frame=31534 fps=453 q=-0.0 size=N/A time=00:21:55.23 bitrate=N/A speed=18.9x    frame=31777 fps=453 q=-0.0 size=N/A time=00:22:05.36 bitrate=N/A speed=18.9x    frame=32025 fps=453 q=-0.0 size=N/A time=00:22:15.70 bitrate=N/A speed=18.9x    frame=32219 fps=453 q=-0.0 size=N/A time=00:22:23.80 bitrate=N/A speed=18.9x    frame=32460 fps=453 q=-0.0 size=N/A time=00:22:33.85 bitrate=N/A speed=18.9x    frame=32651 fps=452 q=-0.0 size=N/A time=00:22:41.81 bitrate=N/A speed=18.9x    frame=32834 fps=451 q=-0.0 size=N/A time=00:22:49.45 bitrate=N/A speed=18.8x    frame=33025 fps=451 q=-0.0 size=N/A time=00:22:57.41 bitrate=N/A speed=18.8x    frame=33234 fps=450 q=-0.0 size=N/A time=00:23:06.13 bitrate=N/A speed=18.8x    frame=33425 fps=450 q=-0.0 size=N/A time=00:23:14.10 bitrate=N/A speed=18.8x    frame=33621 fps=449 q=-0.0 size=N/A time=00:23:22.27 bitrate=N/A speed=18.7x    frame=33820 fps=449 q=-0.0 size=N/A time=00:23:30.57 bitrate=N/A speed=18.7x    frame=34053 fps=449 q=-0.0 size=N/A time=00:23:40.29 bitrate=N/A speed=18.7x    [Parsed_ssim_10 @ 0000027c4e63e440] SSIM Y:0.993848 (22.110150) U:0.994355 (22.483583) V:0.994649 (22.715538) All:0.994066 (22.266759)
[out#0/null @ 0000027c41552d40] video:14697KiB audio:267508KiB subtitle:0KiB other streams:0KiB global headers:0KiB muxing overhead: unknown
frame=34204 fps=448 q=-0.0 Lsize=N/A time=00:23:46.59 bitrate=N/A speed=18.7x    
